PathFileType	4	(X/Y/Z)	C:/Users/opensim2020/Desktop/walking_exp_matlab/subject03_walking11_straight_02.trc																																																																																																																																								
DataRate	CameraRate	NumFrames	NumMarkers	Units	OrigDataRate	OrigDataStartFrame	OrigNumFrames																																																																																																																																				
100	100	4	46	mm	100	1977	357																																																																																																																																				
Frame#	Time	LFHD			RFHD			LBHD			RBHD			C7			T10			CLAV			STRN			RBAK			LSHO			LUPA			LELB			LFRM			LWRA			LWRB			LFIN			RSHO			RUPA			RELB			RFRM			RWRA			RWRB			RFIN			LASI			RASI			LPSI			RPSI			LTHI			LKNE			LTIB			LANK			LHEE			LTOE			RTHI			RKNE			RTIB			RANK			RHEE			RTOE			*39			*40			*41			*42			*43			*44			*45		
		X1	Y1	Z1	X2	Y2	Z2	X3	Y3	Z3	X4	Y4	Z4	X5	Y5	Z5	X6	Y6	Z6	X7	Y7	Z7	X8	Y8	Z8	X9	Y9	Z9	X10	Y10	Z10	X11	Y11	Z11	X12	Y12	Z12	X13	Y13	Z13	X14	Y14	Z14	X15	Y15	Z15	X16	Y16	Z16	X17	Y17	Z17	X18	Y18	Z18	X19	Y19	Z19	X20	Y20	Z20	X21	Y21	Z21	X22	Y22	Z22	X23	Y23	Z23	X24	Y24	Z24	X25	Y25	Z25	X26	Y26	Z26	X27	Y27	Z27	X28	Y28	Z28	X29	Y29	Z29	X30	Y30	Z30	X31	Y31	Z31	X32	Y32	Z32	X33	Y33	Z33	X34	Y34	Z34	X35	Y35	Z35	X36	Y36	Z36	X37	Y37	Z37	X38	Y38	Z38	X39	Y39	Z39	X40	Y40	Z40	X41	Y41	Z41	X42	Y42	Z42	X43	Y43	Z43	X44	Y44	Z44	X45	Y45	Z45	X46	Y46	Z46
																																																																																																																																											
179	1.78	162.45213	1616.17383	938.00476	145.3454	1618.7467	1069.69812	31.8274	1584.41565	925.00378	19.6693	1585.90076	1055.45227	-16.65866	1420.09607	980.41846	-51.9995	1105.43542	985.61462	102.43784	1341.45093	988.67645	145.6133	1177.46838	985.4646	-76.77219	1244.0061	1075.82532	68.48677	1377.20349	831.60956	97.58527	1186.20081	756.67596	133.00415	1068.7063	744.80646	191.25027	952.66431	751.86176	234.56459	843.25507	787.09467	221.39317	844.11578	732.6532	259.81305	770.01093	745.18018	50.50422	1365.77026	1146.05225	47.66422	1142.98767	1219.31628	62.90412	1031.41223	1234.01294	81.64071	895.8642	1237.07642	115.06328	800.9884	1203.82178	82.15989	795.43549	1246.27954	106.16747	724.48212	1236.51343	114.19498	942.75226	869.71112	115.14496	942.80219	1108.33289	-46.82187	967.32349	922.79541	-45.29529	969.41058	1071.38745	50.80531	640.64392	840.00879	52.77485	463.75781	884.44727	-1.71893	275.71567	887.31348	-16.84267	65.46991	932.5285	-56.11508	30.25803	970.30432	136.08325	30.4081	958.3634	125.10419	651.5578	1158.75085	191.72206	483.83057	1132.48901	104.81136	312.03961	1139.41125	13.64429	114.8064	1101.57947	-38.56262	93.73347	1049.69958	133.75894	42.36244	1086.74597	79.70439	1681.62744	983.56378	NaN	NaN	NaN	NaN	NaN	NaN	NaN	NaN	NaN	NaN	NaN	NaN	NaN	NaN	NaN	NaN	NaN	NaN
180	1.79	169.11861	1615.73706	938.52509	151.86159	1618.15222	1070.19763	38.4847	1584.11755	925.38159	26.18093	1585.47717	1055.82446	-10.31478	1419.77332	980.59167	-45.75177	1105.06775	985.48138	108.71558	1340.97412	988.81934	151.83185	1177.01355	985.27179	-70.6011	1243.51123	1075.64026	74.80157	1377.07507	831.80054	104.68573	1186.49902	756.52087	141.20512	1069.27795	744.55322	201.05049	954.1297	751.73639	246.35762	845.69373	787.25763	232.68448	845.90259	732.98285	272.47049	772.6001	745.67584	56.71157	1364.9978	1146.15552	53.17971	1142.30493	1219.55481	67.85312	1030.65576	1234.28296	85.76914	894.99103	1237.63538	118.4655	799.9165	1204.3822	85.62679	794.58673	1246.98474	109.28783	723.38287	1237.40186	120.08454	942.23877	869.34717	121.64268	942.69598	1107.94629	-40.67128	966.89319	922.68408	-38.9372	969.09802	1071.3291	55.69603	640.22009	840.51624	56.03587	463.39212	884.5484	0.08856	275.72983	887.41986	-16.70403	65.58246	932.70898	-56.10292	30.35408	970.38361	136.19476	30.41862	958.28955	132.75922	651.61017	1158.74487	200.29938	484.35724	1131.34375	119.55051	309.45663	1138.69519	36.9107	108.48458	1100.89917	-14.38453	85.13928	1049.06287	160.30399	41.24448	1085.55798	86.39339	1681.21948	983.98376	NaN	NaN	NaN	NaN	NaN	NaN	NaN	NaN	NaN	NaN	NaN	NaN	NaN	NaN	NaN	NaN	NaN	NaN
181	1.8	175.76668	1615.25977	939.08826	158.40666	1617.52051	1070.74548	45.11929	1583.76294	925.77161	32.70506	1584.97754	1056.26123	-3.88267	1419.38025	980.94684	-39.5046	1104.60889	985.47583	115.05421	1340.50964	988.93536	158.09633	1176.4978	985.08771	-64.35426	1242.94006	1075.41772	81.18242	1376.88098	831.97467	111.79	1186.68213	756.51251	149.33244	1069.79126	744.36053	210.68253	955.52155	751.73053	257.83157	848.03107	787.65417	243.69431	847.63416	733.49371	284.88058	775.14465	746.36359	62.94773	1364.22498	1146.37268	58.64985	1141.58276	1219.73608	72.87709	1029.88965	1234.55176	89.95415	894.11786	1238.09424	122.02848	798.75	1204.96082	89.26959	793.78333	1247.70166	112.49282	722.36536	1238.1731	126.0635	941.69965	869.03699	128.18166	942.43536	1107.56323	-34.53775	966.47113	922.6947	-32.51193	968.72308	1071.28821	60.23215	639.96362	840.69116	59.07994	463.08356	884.67755	1.79925	275.72281	887.55597	-16.52603	65.6517	932.83276	-56.10209	30.43484	970.53027	136.16922	30.42981	958.20496	140.37303	651.75043	1158.63928	208.51936	484.67151	1130.66736	134.14777	306.90549	1138.04578	60.78963	102.27002	1099.74768	10.54428	76.94817	1047.91785	186.68222	40.46775	1084.51306	93.03854	1680.7782	984.76807	NaN	NaN	NaN	NaN	NaN	NaN	NaN	NaN	NaN	NaN	NaN	NaN	NaN	NaN	NaN	NaN	NaN	NaN
182	1.81	182.38286	1614.74072	939.7417	164.95065	1616.86255	1071.36926	51.72059	1583.34351	926.32526	39.23382	1584.37769	1056.71362	2.52706	1418.98608	981.26599	-33.22881	1104.17578	985.51996	121.42897	1339.88611	989.15485	164.44238	1175.93311	984.92065	-58.07425	1242.31787	1075.33936	87.57584	1376.60242	832.19348	118.9297	1186.80725	756.29688	157.44672	1070.29102	744.18506	220.16449	956.83167	751.88324	268.93521	850.27045	788.23199	254.5305	849.26392	734.22711	297.01138	777.63666	747.25818	69.26015	1363.38843	1146.61279	64.12177	1140.77478	1219.94788	77.96371	1029.01379	1234.84534	94.26193	893.2016	1238.57642	125.80392	797.65033	1205.59424	93.02816	792.82721	1248.34973	115.90192	721.3183	1238.95679	132.17445	941.18195	868.8028	134.79094	942.03333	1107.38562	-28.31566	965.94263	922.72125	-26.08181	968.2226	1071.3916	65.05711	639.53088	841.08264	62.16961	462.771	884.79614	3.4668	275.72131	887.63306	-16.41042	65.80351	932.97858	-56.13328	30.5843	970.6684	136.21082	30.38033	958.18378	148.56393	651.68597	1159.32935	216.34702	484.76132	1130.01794	148.74815	304.32916	1137.40808	84.48721	96.74168	1098.81799	35.31883	69.4556	1046.84021	213.03368	40.14642	1083.43298	99.6844	1680.31323	985.40503	NaN	NaN	NaN	NaN	NaN	NaN	NaN	NaN	NaN	NaN	NaN	NaN	NaN	NaN	NaN	NaN	NaN	NaN
